<?xml version="1.0" encoding="utf-8"?>
<!-- Generator: Adobe Illustrator 24.0.2, SVG Export Plug-In . SVG Version: 6.00 Build 0)  -->
<svg version="1.1" id="Layer_1" xmlns="http://www.w3.org/2000/svg" xmlns:xlink="http://www.w3.org/1999/xlink" x="0px" y="0px"
	 viewBox="0 0 160 160" style="enable-background:new 0 0 160 160;" xml:space="preserve">
<style type="text/css">
	.st0{fill:#0A0082;}
</style>
<g>
	<path class="st0" d="M51.2,78.2V78c4-2,8.8-5.8,8.8-12.6c0-9.2-8-13.6-15.8-13.6h-15c-2.8,0-4.4,2.2-4.4,4.6v46.8
		c0,2.8,2.8,4.2,5.4,4.2h14.2c8.6,0,16.6-4.6,16.6-16C61,82.2,54.6,78.8,51.2,78.2z M35.6,61h4.2c4.8,0,9,1.6,9,7c0,5.2-4.4,7-9,7
		h-4.2V61z M41,98.2h-4.8V82.6H41c4,0,9.4,1.4,9.4,7.6C50.4,95.6,47.4,98.2,41,98.2z"/>
	<path class="st0" d="M137.8,91c0,10.4-8,17-17.8,17c-3.8,0-8-1-10.4-2.2c-2.6-1.2-4.2-2.6-3.2-6c1-3.2,2.6-5,5.6-3.6
		c1.8,0.8,5.2,2,8,2c3.6,0,7.2-1.8,7.2-5.6c0-3-1.8-5.2-4.6-6.8l-4.6-2.6c-6.4-3.6-10.4-8-10.4-15.8c0-10,7.8-16.2,17.2-16.2
		c3.4,0,6.8,0.8,9.2,2s3.8,2.4,2.8,5.8c-0.8,3-2.6,4.8-5.4,3.4c-1.8-0.8-4.2-1.8-6.8-1.8c-3.8,0-6.4,2.2-6.4,5.4
		c0,2.8,2.2,5,4.8,6.4l4.4,2.4C133.2,78,137.8,82.8,137.8,91z"/>
	<path class="st0" d="M102.8,55.8V89c0,12.8-7.2,19-18,19c-12,0-18.6-6-18.6-19.2v-33c0-2.8,2.6-4.2,5.6-4.2c2.6,0,5.6,1.4,5.6,4.2
		v31.8c0,6.6,2.4,10.6,7.4,10.6C90,98.2,92,94,92,87.6V55.8c0-2.8,2.6-4.2,5.4-4.2C100,51.6,102.8,53,102.8,55.8z"/>
	<path class="st0" d="M80.2,0C36,0,0,36,0,80.4C0,124.2,36,160,80.2,160c44.2,0,79.8-35.4,79.8-79.6C160,36,122.8,0,80.2,0z
		 M80.2,149c-38,0-69.2-30.8-69.2-68.6c0-38.2,31.2-69.6,69.2-69.6c37.8,0,68.8,31.6,68.8,69.6C149,118,118,149,80.2,149z"/>
</g>
</svg>
